<mxfile host="app.diagrams.net" modified="2023-10-31T13:03:23.088Z" agent="Mozilla/5.0 (Windows NT 10.0; Win64; x64) AppleWebKit/537.36 (KHTML, like Gecko) Chrome/118.0.0.0 Safari/537.36 Edg/118.0.2088.76" etag="GmgD_teT66upNhxVrlQS" version="22.0.8" type="github">
  <diagram name="第 1 页" id="bXGYOoproA1wuHVVShOP">
    <mxGraphModel dx="899" dy="572" grid="0" gridSize="10" guides="1" tooltips="1" connect="1" arrows="1" fold="1" page="0" pageScale="1" pageWidth="827" pageHeight="1169" math="0" shadow="0">
      <root>
        <mxCell id="0" />
        <mxCell id="1" parent="0" />
        <mxCell id="OCZPvHnsJAvNHzEWMeDi-1" value="LLM" style="rounded=0;whiteSpace=wrap;html=1;fontSize=43;fillColor=#dae8fc;strokeColor=#6c8ebf;" vertex="1" parent="1">
          <mxGeometry x="200" y="376" width="319" height="125" as="geometry" />
        </mxCell>
        <mxCell id="OCZPvHnsJAvNHzEWMeDi-4" style="edgeStyle=orthogonalEdgeStyle;rounded=0;orthogonalLoop=1;jettySize=auto;html=1;" edge="1" parent="1" source="OCZPvHnsJAvNHzEWMeDi-2">
          <mxGeometry relative="1" as="geometry">
            <mxPoint x="293.5" y="506.33331298828125" as="targetPoint" />
          </mxGeometry>
        </mxCell>
        <mxCell id="OCZPvHnsJAvNHzEWMeDi-2" value="Prompt" style="text;html=1;strokeColor=#d79b00;fillColor=#ffe6cc;align=center;verticalAlign=middle;whiteSpace=wrap;rounded=1;fontSize=16;dashed=1;" vertex="1" parent="1">
          <mxGeometry x="200" y="533" width="187" height="30" as="geometry" />
        </mxCell>
        <mxCell id="OCZPvHnsJAvNHzEWMeDi-5" style="edgeStyle=orthogonalEdgeStyle;rounded=0;orthogonalLoop=1;jettySize=auto;html=1;" edge="1" parent="1" source="OCZPvHnsJAvNHzEWMeDi-3">
          <mxGeometry relative="1" as="geometry">
            <mxPoint x="456" y="505.66668701171875" as="targetPoint" />
          </mxGeometry>
        </mxCell>
        <mxCell id="OCZPvHnsJAvNHzEWMeDi-3" value="Completion" style="text;html=1;strokeColor=#82b366;fillColor=#d5e8d4;align=center;verticalAlign=middle;whiteSpace=wrap;rounded=1;fontSize=16;dashed=1;" vertex="1" parent="1">
          <mxGeometry x="392" y="533" width="128" height="30" as="geometry" />
        </mxCell>
        <mxCell id="OCZPvHnsJAvNHzEWMeDi-10" style="edgeStyle=orthogonalEdgeStyle;rounded=0;orthogonalLoop=1;jettySize=auto;html=1;entryX=0.5;entryY=1;entryDx=0;entryDy=0;" edge="1" parent="1" source="OCZPvHnsJAvNHzEWMeDi-6" target="OCZPvHnsJAvNHzEWMeDi-8">
          <mxGeometry relative="1" as="geometry" />
        </mxCell>
        <mxCell id="OCZPvHnsJAvNHzEWMeDi-6" value="E&lt;span style=&quot;font-size: 11.1111px;&quot;&gt;&lt;sub&gt;Prompt&lt;/sub&gt;&lt;/span&gt;" style="text;html=1;strokeColor=#d79b00;fillColor=#ffe6cc;align=center;verticalAlign=middle;whiteSpace=wrap;rounded=1;fontSize=16;dashed=1;" vertex="1" parent="1">
          <mxGeometry x="199.5" y="318" width="187" height="30" as="geometry" />
        </mxCell>
        <mxCell id="OCZPvHnsJAvNHzEWMeDi-11" value="" style="edgeStyle=orthogonalEdgeStyle;rounded=0;orthogonalLoop=1;jettySize=auto;html=1;" edge="1" parent="1" source="OCZPvHnsJAvNHzEWMeDi-7" target="OCZPvHnsJAvNHzEWMeDi-9">
          <mxGeometry relative="1" as="geometry" />
        </mxCell>
        <mxCell id="OCZPvHnsJAvNHzEWMeDi-7" value="E&lt;sub&gt;Completion&lt;/sub&gt;" style="text;html=1;strokeColor=#82b366;fillColor=#d5e8d4;align=center;verticalAlign=middle;whiteSpace=wrap;rounded=1;fontSize=16;dashed=1;" vertex="1" parent="1">
          <mxGeometry x="391.5" y="318" width="128" height="30" as="geometry" />
        </mxCell>
        <mxCell id="OCZPvHnsJAvNHzEWMeDi-8" value="Loss&lt;sub style=&quot;font-size: 17px;&quot;&gt;P&lt;/sub&gt;" style="text;html=1;strokeColor=none;fillColor=none;align=center;verticalAlign=middle;whiteSpace=wrap;rounded=0;fontSize=17;" vertex="1" parent="1">
          <mxGeometry x="243.5" y="247.5" width="100" height="38" as="geometry" />
        </mxCell>
        <mxCell id="OCZPvHnsJAvNHzEWMeDi-9" value="Loss&lt;sub style=&quot;font-size: 17px;&quot;&gt;C&lt;/sub&gt;" style="text;html=1;strokeColor=none;fillColor=none;align=center;verticalAlign=middle;whiteSpace=wrap;rounded=0;fontSize=17;" vertex="1" parent="1">
          <mxGeometry x="406" y="248.5" width="100" height="37" as="geometry" />
        </mxCell>
        <mxCell id="OCZPvHnsJAvNHzEWMeDi-16" style="edgeStyle=orthogonalEdgeStyle;rounded=0;orthogonalLoop=1;jettySize=auto;html=1;" edge="1" parent="1">
          <mxGeometry relative="1" as="geometry">
            <mxPoint x="293.5" y="349.33331298828125" as="targetPoint" />
            <mxPoint x="293" y="376" as="sourcePoint" />
          </mxGeometry>
        </mxCell>
        <mxCell id="OCZPvHnsJAvNHzEWMeDi-17" style="edgeStyle=orthogonalEdgeStyle;rounded=0;orthogonalLoop=1;jettySize=auto;html=1;" edge="1" parent="1">
          <mxGeometry relative="1" as="geometry">
            <mxPoint x="456" y="348.66668701171875" as="targetPoint" />
            <mxPoint x="456" y="376" as="sourcePoint" />
          </mxGeometry>
        </mxCell>
      </root>
    </mxGraphModel>
  </diagram>
</mxfile>
